<svg width="36px" height="24px" viewBox="0 0 36 24" version="1.1" xmlns="http://www.w3.org/2000/svg" xmlns:xlink="http://www.w3.org/1999/xlink">

    <title>Bryan Kveton</title>
    <defs></defs>
    <g stroke="none" fill="none" fill-rule="evenodd">
        <g transform="translate(-152.000000, -274.000000)" fill="#222222">
            <g transform="translate(113.000000, 207.000000)">
                <path d="M73.5644776,82.0519874 C73.6988323,81.9197783 73.8222594,81.7741974 73.9304156,81.6144218 C74.3272455,81.0353212 74.5142074,80.320857 74.5125962,79.5549629 C74.5131566,79.038401 71.9508895,75.2988987 71.7424926,74.8559844 C71.4307727,74.18911 70.9042814,73.663085 70.2882669,73.3223447 C69.6707114,72.9798216 68.9638428,72.8104458 68.2355392,72.8101715 C67.9280923,72.8100343 67.6310128,72.8310177 67.3453513,72.8749732 L67.7970299,70.1410968 L65.274691,67.5002057 L63.7141303,67.604437 C61.5592005,67.7485093 59.6535765,67.8659066 57.6434388,67.8657009 L55.1396629,67.8657009 L54.2633449,71.9999106 L49.9055715,67.5 L48.3407378,67.604437 C46.1857379,67.7485093 44.2801139,67.865838 42.2699062,67.865838 L39.5453346,67.865838 L39,70.9619866 L40.7447906,72.4848602 L39.4939884,79.2944533 C39.377146,79.9321841 39.3159228,80.5483829 39.3157827,81.1423639 C39.3159228,82.0253125 39.3384087,82.9137468 39.7501591,83.6266338 C40.3135664,84.6023619 42.3338613,87.2899513 42.4722089,87.4567214 C43.1308134,88.2502504 43.6830829,89.0913693 44.6115177,89.5953138 C45.7385425,90.2127469 47.1113708,90.4994514 48.6938569,90.5 L48.695538,90.5 C50.6811585,90.5 52.325288,90.1755116 53.6703767,89.6188344 C54.8909876,89.1172214 55.196403,88.5403151 55.196403,88.5403151 L57.3092331,90.3142352 L57.7591604,90.2453877 C58.3963298,90.1454766 59.2860273,90.1382078 60.4631375,90.1398536 C60.9390531,90.1398536 61.3783329,90.1621398 61.8171224,90.1860719 C62.2585738,90.2100725 62.699885,90.2340046 63.1413363,90.2581423 L64.2315853,90.3174581 L64.4174263,89.2638309 L64.6738072,87.8089133 C64.67787,87.819885 64.6820029,87.8307196 64.6862059,87.8417599 C64.8871777,88.3705964 65.1736797,88.8297626 65.5281997,89.1962177 C66.0598747,89.7504263 66.7218416,90.0646288 67.3348439,90.2203585 C67.951769,90.3785569 68.5347902,90.4027632 69.0448199,90.4039975 C69.8595646,90.4050261 70.6203011,90.2325645 71.28521,89.9285109 C72.2866363,89.4717449 73.056129,88.7432232 73.647276,87.9405739 C74.240034,87.1348388 74.6691567,86.2437986 75,85.3726447 L73.5644776,82.0519874 Z M46.6947,85.4842533 C46.7675166,85.4947824 46.8469309,85.5 46.9333376,85.5 C47.0446464,85.5 47.1452476,85.4885864 47.2382626,85.4515386 C53.7282166,84.9465334 55,80.6257897 55,78.6905971 C55,75.6641733 53.2099883,73.6307283 49.8823368,73.6307283 C49.3277523,73.6307283 48.1680943,73.8199347 47.0839896,74.6710594 L47.0335728,74.6237747 L48.1933027,68.5 C45.9747484,68.6418541 43.9831416,68.7601334 41.8654928,68.7601334 L40.1260419,68.7601334 L40,69.4457617 L42.0923683,69.4457617 L40.2520839,79.0452324 C39.4957602,82.9937755 41.361253,85.5 45.94954,85.5 C46.2048106,85.5 46.4531377,85.4946575 46.6947,85.4842533 L46.6947,85.4842533 Z M66.2771582,85.5 C64.6627427,85.5 62.8072422,85.1671555 62.8072422,81.6483096 C62.8072422,79.6034215 62.469916,79.4133605 61.6025059,79.2944875 L60.5422002,85.3573523 C60.108564,85.3335777 59.67479,85.3098711 59.2410161,85.2860285 C58.8072422,85.2622539 58.3494424,85.2384793 57.8433843,85.2384793 C56.6867686,85.2384793 55.7711001,85.2384793 55,85.3573523 L57.8916426,69.4510523 L55.9157373,69.4510523 L56.0362109,68.7615886 L57.4819634,68.7615886 C59.5060581,68.7615886 61.4096792,68.6426477 63.5302217,68.5 L61.7229106,78.7000543 C62.9518794,78.6762118 63.1687319,78.5098575 64.2289687,76.4888799 C65.1687319,74.729355 65.9157373,73.6594297 67.8915049,73.6594297 C69.2892056,73.6594297 70.4458213,74.5392261 70.4458213,75.9419959 C70.4458213,77.4874134 69.4820322,78.1531704 68.2771582,78.1531704 C67.1927578,78.1531704 66.32521,77.511256 66.32521,76.298683 C66.32521,75.4188866 66.8795952,75.3475628 66.8795952,74.8006789 C66.8795952,74.5629328 66.7831475,74.5392261 66.5903896,74.5392261 C65.2892056,74.5392261 64.7108633,78.414759 63.1446372,78.7713102 L63.1928267,78.8189953 C64.7350268,78.7713102 65.9638579,78.9854176 66.5422002,79.2230957 C67.8193584,79.7462051 68.3494424,81.26778 68.3977007,81.624535 C68.5422002,82.6943924 68.734958,82.9084318 69.0000688,82.9084318 C69.867479,82.9084318 70.1084951,81.6957909 70.4458213,81.1726816 L71,81.2915546 C70.2049429,83.4076307 68.8073799,85.5 66.2771582,85.5 Z M46.6947,85.4842533 C46.186959,85.4108351 46,85.0791663 46,84.4574095 C46,83.3436656 46.4221954,80.12091 46.9555584,77.6564021 C47.3777538,75.7132571 47.644467,75.5 48.2667132,75.5 C48.7777919,75.5 49,76.0687534 49,76.518963 C49,77.9170497 48.6666243,80.0260614 48.288934,82.2773798 C47.9088097,84.6320422 47.6466576,85.2888751 47.2382626,85.4515386 C47.060995,85.4653324 46.8798342,85.4762794 46.6947,85.4842533 L46.6947,85.4842533 Z"></path>
            </g>
        </g>
    </g>
</svg>