<svg width="73px" height="28px" viewBox="0 0 73 28" version="1.1" xmlns="http://www.w3.org/2000/svg" xmlns:xlink="http://www.w3.org/1999/xlink">

    <g stroke="none" stroke-width="1" fill="none" fill-rule="evenodd">
        <g fill="#FFFFFF">
            <g transform="translate(12.000000, 7.000000)">
                <path d="M4.5,9 C6.98528137,9 9,6.98528137 9,4.5 C9,2.01471863 6.98528137,0 4.5,0 C2.01471863,0 0,2.01471863 0,4.5 C0,6.98528137 2.01471863,9 4.5,9 Z" fill-opacity="0.5"></path>
                <path d="M24.5,9 C26.9852814,9 29,6.98528137 29,4.5 C29,2.01471863 26.9852814,0 24.5,0 C22.0147186,0 20,2.01471863 20,4.5 C20,6.98528137 22.0147186,9 24.5,9 Z" fill-opacity="0.6"></path>
                <path d="M44.5,9 C46.9852814,9 49,6.98528137 49,4.5 C49,2.01471863 46.9852814,0 44.5,0 C42.0147186,0 40,2.01471863 40,4.5 C40,6.98528137 42.0147186,9 44.5,9 Z" fill-opacity="0.699999988"></path>
            </g>
        </g>
    </g>
</svg>